<?xml version="1.0" ?><!DOCTYPE svg  PUBLIC '-//W3C//DTD SVG 1.1//EN'  'http://www.w3.org/Graphics/SVG/1.1/DTD/svg11.dtd'><svg height="32px" id="Layer_1" style="enable-background:new 0 0 32 32;" version="1.1" viewBox="0 0 32 32" width="32px" xml:space="preserve" xmlns="http://www.w3.org/2000/svg" xmlns:xlink="http://www.w3.org/1999/xlink"><g transform="translate(288 336)"><path d="M-274-336h4v4h-4V-336z M-274-304h4v-4h-4V-304z M-284-322h-4v4h4V-322z M-260-322v4h4v-4H-260z M-265.865-307.375l1,1.73   l1.73-1l-1-1.73L-265.865-307.375z M-280.866-333.355l1,1.73l1.732-1l-1-1.729l-1.732,1V-333.355z M-260.375-312.136l1.732,1   l0.998-1.731l-1.73-0.998L-260.375-312.136z M-286.356-327.133l1.732,1l1-1.734l-1.732-1L-286.356-327.133z M-263.135-333.359   l-1.732-0.996l-0.998,1.73l1.73,1l1-1.732V-333.359L-263.135-333.359z M-280.866-306.645l1.732,1l1-1.732l-1.732-1   L-280.866-306.645z M-257.645-327.137l-1-1.73l-1.73,1l1,1.729l1.73-1V-327.137z M-286.356-312.867l1,1.73l1.732-1l-1-1.73   L-286.356-312.867z M-272-322c-1.104,0-2,0.896-2,2c0,1.105,0.896,2,2,2c1.105,0,2-0.895,2-2C-270-321.104-270.895-322-272-322z    M-274-322.22c0.532-0.479,1.229-0.78,2-0.78c0.771,0,1.468,0.301,2,0.78V-330h-4V-322.22z M-269-320c0,0.771-0.301,1.469-0.781,2   H-262v-4h-7.781C-269.301-321.47-269-320.771-269-320z"/></g></svg>